<svg width="49" height="46" viewBox="0 0 49 46" fill="none" xmlns="http://www.w3.org/2000/svg">
<path d="M23.383 21.5537C32.0054 5.10023 42.9426 25.6671 28.7931 26.9011C14.6436 28.1351 -0.338574 18.6744 12.9789 13.327C26.2964 7.97959 50.0174 7.97959 44.6073 17.4404C39.1971 26.9011 17.5567 43.766 17.1405 32.2485C16.7244 20.7311 12.1466 -2.30386 23.383 1.39818C34.6194 5.10023 37.0062 18.6744 46.9941 25.2558C51.8418 28.4502 37.8316 41.1864 33.3709 40.4753C20.4698 38.4186 -7.107 29.3692 3.29659 13.327C9.7681 3.34801 26.2964 17.4404 28.7931 21.5537C33.075 28.6084 33.9869 45 23.383 45C9.73884 45 7 40.4753 9.73884 32.2485" stroke="#000AAA" stroke-width="2" stroke-linecap="round"/>
</svg>
